<?xml version="1.0" standalone="no"?>
<!DOCTYPE svg PUBLIC "-//W3C//DTD SVG 20010904//EN"
 "http://www.w3.org/TR/2001/REC-SVG-20010904/DTD/svg10.dtd">
<svg version="1.0" xmlns="http://www.w3.org/2000/svg"
 width="2048.000000pt" height="1025.000000pt" viewBox="0 0 2048.000000 1025.000000"
 preserveAspectRatio="xMidYMid meet">

<g transform="translate(0.000000,1025.000000) scale(0.100000,-0.100000)"
fill="#000000" stroke="none">
<path d="M12860 6439 c-410 -42 -890 -303 -1033 -561 -106 -189 -121 -402 -44
-623 25 -74 31 -106 31 -180 1 -88 0 -93 -51 -200 -67 -143 -77 -177 -77 -256
0 -100 33 -158 151 -266 115 -106 153 -165 153 -240 0 -29 -14 -117 -31 -195
-52 -238 -45 -341 29 -421 20 -21 23 -30 14 -39 -15 -15 -506 -356 -509 -353
-2 0 -14 77 -28 169 -14 93 -30 176 -35 186 -5 9 -20 25 -34 34 -23 15 -176
16 -1869 16 l-1844 0 -27 -21 c-15 -12 -32 -32 -37 -46 -6 -17 46 -387 196
-1371 113 -741 205 -1357 205 -1369 l0 -23 2675 0 2675 0 0 89 c0 105 -13 147
-52 171 l-29 17 53 6 c74 9 348 9 347 0 -4 -23 3 -33 22 -33 12 0 44 -21 71
-46 85 -79 237 -137 493 -189 66 -13 167 -29 225 -34 63 -6 941 -13 2185 -17
1144 -3 2359 -9 2700 -13 341 -3 727 -5 858 -3 l237 3 0 1372 0 1372 -412 567
c-227 312 -419 570 -426 573 -18 7 -36 -4 -169 -101 -64 -47 -119 -81 -123
-77 -4 4 -29 40 -55 78 -27 39 -68 96 -92 127 -24 31 -43 58 -43 61 0 2 122
53 270 113 291 116 321 135 340 205 16 58 3 108 -39 151 -39 38 -106 63 -144
53 -64 -18 -89 -41 -269 -248 -174 -199 -193 -218 -199 -196 -32 114 41 328
190 557 91 140 104 171 105 257 1 81 -15 129 -73 214 -49 72 -100 98 -159 82
-39 -12 -1359 -957 -1373 -984 -24 -44 -15 -101 24 -153 45 -61 591 -822 635
-886 18 -26 32 -50 32 -55 0 -4 -50 -44 -111 -87 -131 -93 -142 -104 -136
-125 5 -20 733 -1025 797 -1101 74 -87 770 -999 770 -1008 0 -5 -9 -17 -19
-26 -23 -21 24 -78 -501 608 l-365 476 -274 90 c-151 50 -280 90 -287 90 -6 0
-15 -17 -19 -37 -48 -256 -300 -432 -564 -394 -322 47 -515 389 -390 689 12
29 20 54 18 56 -2 1 -108 37 -236 79 -289 96 -374 111 -578 104 -225 -8 -412
-63 -599 -175 -73 -44 -91 -51 -101 -40 -7 7 -46 51 -86 98 -41 46 -135 148
-209 225 -74 78 -207 217 -295 310 -88 93 -200 202 -250 244 -104 86 -293 213
-383 255 -66 31 -77 50 -38 60 42 10 173 105 214 154 85 102 132 243 132 397
0 124 -25 176 -117 243 -179 129 -225 182 -268 312 -68 203 -203 319 -471 403
-141 44 -180 65 -231 120 -49 53 -72 97 -114 212 -41 112 -108 213 -200 300
-123 117 -262 175 -458 195 -116 11 -149 11 -271 -1z m852 -1290 c111 -24 197
-90 242 -188 31 -67 29 -198 -3 -263 -32 -66 -93 -125 -159 -156 -48 -23 -71
-27 -142 -27 -72 0 -92 4 -135 27 -28 14 -70 47 -94 73 -62 67 -84 124 -85
215 -1 66 3 84 32 142 34 69 104 141 131 136 8 -2 23 -17 34 -35 l18 -32 -49
-48 c-77 -74 -93 -167 -46 -261 30 -61 74 -98 140 -118 87 -26 154 -12 216 44
54 49 78 102 78 176 0 112 -62 191 -175 224 l-60 18 -3 42 c-2 23 -1 42 2 42
3 0 29 -5 58 -11z m5961 -99 c37 -30 52 -80 34 -122 -8 -18 -20 -38 -28 -45
-16 -13 -412 -173 -417 -168 -6 6 280 329 302 342 32 19 80 15 109 -7z m-7584
-467 c11 -28 10 -36 -12 -75 -69 -118 -26 -262 95 -322 57 -29 124 -34 187
-15 32 9 43 8 74 -9 35 -18 36 -21 21 -36 -26 -26 -84 -47 -150 -53 -125 -12
-240 52 -303 167 -32 59 -36 72 -36 145 0 90 18 145 67 208 33 41 38 40 57
-10z m571 -2250 c13 -31 39 -76 57 -100 18 -24 33 -45 33 -48 0 -3 -55 -5
-122 -5 -97 0 -130 -4 -158 -18 -56 -28 -61 -48 -54 -204 l7 -137 -199 -99
c-110 -55 -263 -134 -341 -175 l-143 -75 -5 32 c-19 112 -45 289 -43 291 2 2
20 10 41 19 34 14 307 191 737 478 80 53 150 97 155 97 6 0 21 -25 35 -56z
m4624 -557 c335 -119 626 -226 647 -237 62 -31 106 -76 136 -137 22 -47 27
-71 27 -137 1 -68 -3 -89 -27 -136 -32 -66 -99 -132 -165 -162 -35 -16 -66
-22 -122 -21 -69 0 -95 7 -315 86 -132 47 -406 146 -610 218 -203 73 -386 140
-405 150 -48 24 -117 100 -140 154 -93 218 72 457 305 442 47 -3 197 -52 669
-220z m-6840 -331 c20 -35 41 -67 46 -70 5 -3 33 1 62 10 67 20 190 19 258 -1
44 -13 55 -13 61 -2 57 97 77 123 95 126 39 6 36 -26 -8 -100 -39 -66 -40 -71
-23 -81 36 -20 104 -89 134 -136 34 -53 55 -107 66 -169 l7 -42 -466 0 -465 0
6 33 c21 113 86 226 165 286 26 20 47 40 47 45 1 4 -15 34 -34 66 -42 69 -46
100 -11 100 19 0 32 -13 60 -65z"/>
<path d="M16490 1929 c-163 -73 -212 -278 -100 -419 17 -22 46 -48 65 -60 29
-18 789 -294 835 -304 8 -2 29 -9 45 -15 34 -15 104 -40 108 -40 3 0 29 -9 90
-32 26 -10 47 -16 47 -13 0 4 6 2 13 -4 6 -5 45 -20 85 -32 126 -40 219 -15
304 78 50 56 68 105 68 183 0 101 -60 192 -155 235 -27 12 -317 117 -643 233
-531 189 -600 211 -655 211 -41 0 -78 -8 -107 -21z"/>
<path d="M10427 1192 c-20 -22 -22 -63 -5 -80 20 -20 76 -15 88 7 15 29 12 56
-8 74 -24 22 -55 21 -75 -1z"/>
<path d="M10850 1190 c-25 -25 -26 -52 -2 -73 37 -34 102 -12 102 34 0 25 -35
59 -60 59 -11 0 -29 -9 -40 -20z"/>
<path d="M17460 2869 c-73 -172 -39 -352 94 -485 142 -142 339 -171 519 -77
114 60 207 187 223 305 l6 46 -98 32 c-55 17 -237 76 -405 131 -168 54 -308
99 -311 99 -3 0 -15 -23 -28 -51z"/>
</g>
</svg>
